<svg xmlns="http://www.w3.org/2000/svg" width="24.679" height="43.182" viewBox="0 0 24.679 43.182">
  <g id="motorcycle" transform="translate(-105.121 0.001)">
    <path id="Pfad_26" data-name="Pfad 26" d="M186.5,8.605a4.35,4.35,0,0,0,7.186,0,3.37,3.37,0,0,0,1.766-3.331A5.264,5.264,0,0,0,190.251,0,3.632,3.632,0,0,0,187.5.976a3.254,3.254,0,0,0-1.319.67,4.55,4.55,0,0,0-1.46,3.607A3.358,3.358,0,0,0,186.5,8.605Zm3.591,1.147a3.611,3.611,0,0,1-3.607-3.607V5.154a3.7,3.7,0,0,0,1.783-1.948A8.072,8.072,0,0,0,193.7,5.733v.413A3.611,3.611,0,0,1,190.088,9.753Zm-4.623-4.485c.066-3.229,2.182-3.565,2.269-3.577a.381.381,0,0,0,.24-.132A2.8,2.8,0,0,1,190.219.75,4.533,4.533,0,0,1,194.7,5.28a3.227,3.227,0,0,1-.34,1.711,4.354,4.354,0,0,0,.083-.846V5.7a.374.374,0,0,0-.171-.714,7.477,7.477,0,0,1-5.832-2.709h0a.373.373,0,0,0-.655.115c-.006.02-.64,2.027-1.928,2.154a.373.373,0,0,0-.123.709v.894a4.361,4.361,0,0,0,.085.857A3.2,3.2,0,0,1,185.465,5.268Z" transform="translate(-72.589 0)" fill="#0065f2"/>
    <path id="Pfad_27" data-name="Pfad 27" d="M226.723,79.872h-.435a1.536,1.536,0,0,0-1.534,1.534v.45a.374.374,0,1,0,.748,0v-.45a.787.787,0,0,1,.786-.786h.435a.787.787,0,0,1,.786.786v.45a.374.374,0,0,0,.748,0v-.45A1.536,1.536,0,0,0,226.723,79.872Z" transform="translate(-109.104 -72.844)" fill="#0065f2"/>
    <path id="Pfad_28" data-name="Pfad 28" d="M237,94.969h-.808a.374.374,0,1,0,0,.748H237a.374.374,0,1,0,0-.748Z" transform="translate(-119.195 -86.613)" fill="#0065f2"/>
    <path id="Pfad_29" data-name="Pfad 29" d="M123.785,145.522c.686-2.193,2.286-8.9,2.286-8.9a4.151,4.151,0,0,0-.814-3.764h1.621a1.038,1.038,0,0,0,1.037-1.037v-.729a1.03,1.03,0,0,0-.1-.438h.025a1.958,1.958,0,0,0,1.385-3.343s-4.993-4.838-6.552-6.552a2.41,2.41,0,0,0-1.778-.839h-1.91a.374.374,0,0,0-.372.334,1.152,1.152,0,0,1-2.228,0,.374.374,0,0,0-.372-.334h-1.91a2.373,2.373,0,0,0-1.7.749l-.008.007c-1.669,1.683-6.7,6.7-6.7,6.7a1.958,1.958,0,0,0,1.38,3.343,1.03,1.03,0,0,0-.069.368v.73a1.038,1.038,0,0,0,1.037,1.037H109.7a4.15,4.15,0,0,0-.814,3.764s1.654,6.639,2.237,8.844a1.045,1.045,0,0,0,1,.772h2.553a.374.374,0,0,0,.374-.374v-4.53a.289.289,0,0,1,.289-.289h4.245a.29.29,0,0,1,.289.289v4.53a.374.374,0,0,0,.374.374H122.8A1.058,1.058,0,0,0,123.785,145.522Zm5.267-16.827a1.21,1.21,0,0,1-2.067.855l-3.469-3.452,1.72-1.72,3.461,3.461A1.2,1.2,0,0,1,129.052,128.695Zm-5.849-6.35,1.5,1.5-1.5,1.5Zm0,4.5,3.227,3.21H123.2Zm-5.7-4.983a1.846,1.846,0,0,0,1.784-1.191H120.9a1.56,1.56,0,0,1,1.558,1.558v5.6h-1.6a.374.374,0,0,0,0,.748h1.6v1.48h-1.871a3.423,3.423,0,0,0-6.247,0h-1.79V129.1h1.264a.374.374,0,1,0,0-.748h-1.264v-6.126a1.56,1.56,0,0,1,1.418-1.551v4.707a.374.374,0,0,0,.748,0v-4.714h1A1.846,1.846,0,0,0,117.5,121.859Zm-.041,13.02a3.425,3.425,0,0,0,.776-.09V140.3h-1.551v-5.506A3.423,3.423,0,0,0,117.461,134.879Zm0-.748a2.677,2.677,0,1,1,2.677-2.677A2.68,2.68,0,0,1,117.461,134.131Zm-5.662-8.644-1.577-1.577,1.577-1.577Zm0,1.326v3.24h-3.24Zm-5.93,1.95a1.2,1.2,0,0,1,.354-.856l3.469-3.469,1.712,1.711-3.469,3.469a1.21,1.21,0,0,1-2.066-.856Zm1.885,3.056v-.73a.29.29,0,0,1,.289-.289H114.1a3.406,3.406,0,0,0,0,1.308h-6.056A.289.289,0,0,1,107.754,131.819Zm3.074,1.037h.257v9.423l-1.479-5.848-.006-.02A3.4,3.4,0,0,1,110.828,132.856Zm3.473,8.476v4.156h-2.179a.289.289,0,0,1-.289-.289v-8.471a.372.372,0,0,0,.323.189h1.965a.374.374,0,1,0,0-.748h-1.965a.372.372,0,0,0-.323.189v-3.5h2.5a3.445,3.445,0,0,0,1.6,1.664V140.3h-.6A1.038,1.038,0,0,0,114.3,141.333Zm8.5,4.156H120.62v-4.156a1.038,1.038,0,0,0-1.037-1.037h-.6V134.52a3.445,3.445,0,0,0,1.6-1.664h2.5v5.167a.371.371,0,0,0-.214-.068h-2.769a.374.374,0,1,0,0,.748h2.769a.371.371,0,0,0,.214-.068V145.2A.289.289,0,0,1,122.8,145.488Zm1.326-12.632a3.361,3.361,0,0,1,1.228,3.555l-.005.019-1.511,5.9v-9.469Zm3.042-1.037a.289.289,0,0,1-.289.289h-6.056a3.406,3.406,0,0,0,0-1.308h6.056a.29.29,0,0,1,.289.289Z" transform="translate(0 -109.368)" fill="#0065f2"/>
    <path id="Pfad_30" data-name="Pfad 30" d="M256.965,159.573l1.16.807a.374.374,0,0,0,.427,0l1.162-.807a.374.374,0,0,0,.161-.307v-1.513a.374.374,0,0,0-.374-.374h-2.322a.374.374,0,0,0-.374.374v1.513A.374.374,0,0,0,256.965,159.573Zm.588-1.446h1.574v.943l-.788.547-.786-.547v-.943Z" transform="translate(-138.335 -143.53)" fill="#0065f2"/>
    <path id="Pfad_31" data-name="Pfad 31" d="M224.033,362.978h-2.255a1.038,1.038,0,0,0-1.037,1.037v9.152a1.038,1.038,0,0,0,1.037,1.037h1.083a.342.342,0,0,0,.175,0h1a1.038,1.038,0,0,0,1.037-1.037v-9.152A1.038,1.038,0,0,0,224.033,362.978Zm.289,10.189a.289.289,0,0,1-.289.289h-.71v-3.1a.374.374,0,1,0-.748,0v3.1h-.8a.29.29,0,0,1-.289-.289v-9.152a.29.29,0,0,1,.289-.289h2.255a.29.29,0,0,1,.289.289Z" transform="translate(-105.445 -331.036)" fill="#0065f2"/>
    <path id="Pfad_32" data-name="Pfad 32" d="M227.252,233.618a.374.374,0,0,0-.529,0l-1.652,1.652a.374.374,0,1,0,.529.529l1.652-1.652A.374.374,0,0,0,227.252,233.618Z" transform="translate(-109.294 -210.96)" fill="#0065f2"/>
    <path id="Pfad_33" data-name="Pfad 33" d="M244.418,240.722a.374.374,0,0,0-.529,0l-1.563,1.563a.374.374,0,1,0,.529.529l1.563-1.563A.374.374,0,0,0,244.418,240.722Z" transform="translate(-125.03 -219.439)" fill="#0065f2"/>
  </g>
</svg>
