<svg xmlns="http://www.w3.org/2000/svg" width="36.454" height="16.233" viewBox="0 0 36.454 16.233">
  <g id="Gruppe_2" data-name="Gruppe 2" transform="translate(-135.965 -428.059)">
    <path id="Pfad_19" data-name="Pfad 19" d="M409.865,533.786a2.993,2.993,0,1,1,2.993-2.993A3,3,0,0,1,409.865,533.786Zm0-5.164a2.171,2.171,0,1,0,2.171,2.171A2.173,2.173,0,0,0,409.865,528.622Z" transform="translate(-243.074 -89.494)" fill="#0065f2"/>
    <path id="Pfad_20" data-name="Pfad 20" d="M181.786,533.786a2.993,2.993,0,1,1,2.993-2.993A3,3,0,0,1,181.786,533.786Zm0-5.164a2.171,2.171,0,1,0,2.171,2.171A2.173,2.173,0,0,0,181.786,528.622Z" transform="translate(-38.428 -89.494)" fill="#0065f2"/>
    <path id="Pfad_21" data-name="Pfad 21" d="M244.874,566.668H225.866a.411.411,0,0,1,0-.822h19.009a.411.411,0,1,1,0,.822Z" transform="translate(-80.296 -123.631)" fill="#0065f2"/>
    <path id="Pfad_22" data-name="Pfad 22" d="M172.008,460.678h-2.848a.411.411,0,1,1,0-.822H171.6v-3.3l-.947-2.343-1.631-1.018-5.661-.745a.412.412,0,0,1-.137-.043L156.5,448.88h-9.162l-6.893,3.206a.41.41,0,0,1-.141.037l-2.379.187v3.729a.411.411,0,0,1-.334.4l-.8.153v2.466l.882.8h3.318a.411.411,0,1,1,0,.822h-3.476a.411.411,0,0,1-.275-.106l-1.135-1.023a.41.41,0,0,1-.136-.305v-2.988a.411.411,0,0,1,.334-.4l.8-.153v-3.769a.411.411,0,0,1,.379-.41l2.684-.211,6.908-3.213a.41.41,0,0,1,.173-.038H156.6a.41.41,0,0,1,.191.047l6.748,3.535,5.677.747a.41.41,0,0,1,.164.059l1.82,1.135a.411.411,0,0,1,.163.195l1.027,2.541a.411.411,0,0,1,.03.154v3.8A.411.411,0,0,1,172.008,460.678Z" transform="translate(0 -17.944)" fill="#0065f2"/>
    <path id="Pfad_23" data-name="Pfad 23" d="M306.559,466.456h-9.138a.411.411,0,0,1-.411-.411v-3.893a.411.411,0,0,1,.411-.411h3.19a.41.41,0,0,1,.225.067l5.948,3.893a.411.411,0,0,1-.225.755Zm-8.727-.822h7.349l-4.692-3.071h-2.657Z" transform="translate(-144.499 -30.222)" fill="#0065f2"/>
    <path id="Pfad_24" data-name="Pfad 24" d="M206.914,466.456h-8.435a.411.411,0,0,1-.279-.713l4.218-3.893a.411.411,0,0,1,.279-.109h4.217a.411.411,0,0,1,.411.411v3.893A.411.411,0,0,1,206.914,466.456Zm-7.384-.822H206.5v-3.071h-3.646Z" transform="translate(-55.722 -30.222)" fill="#0065f2"/>
    <path id="Pfad_25" data-name="Pfad 25" d="M252.459,430.936a.411.411,0,0,1-.411-.411V429.5a.617.617,0,0,0-.616-.616H244.24a.617.617,0,0,0-.616.616v1.027a.411.411,0,0,1-.822,0V429.5a1.44,1.44,0,0,1,1.438-1.438h7.191a1.44,1.44,0,0,1,1.438,1.438v1.027A.411.411,0,0,1,252.459,430.936Z" transform="translate(-95.861)" fill="#0065f2"/>
  </g>
</svg>
