<svg xmlns="http://www.w3.org/2000/svg" width="37.006" height="26.262" viewBox="0 0 37.006 26.262">
  <g id="truck_2_Konvertiert_" data-name="truck_2 [Konvertiert]" transform="translate(0 -725.8)">
    <path id="Pfad_16" data-name="Pfad 16" d="M3019.449,1419.6l-2.989-7.485a.5.5,0,0,0-.463-.314h-2.365a1.734,1.734,0,0,0-1.733,1.733v5.017a1.734,1.734,0,0,0,1.733,1.733h5.354a.5.5,0,0,0,.463-.683Zm-1.2-.314h-4.616a.736.736,0,0,1-.735-.735v-5.017a.736.736,0,0,1,.735-.735h2.027Z" transform="translate(-2989.609 -680.923)" fill="#0065f2"/>
    <path id="Pfad_17" data-name="Pfad 17" d="M0,727.532V747.6a1.734,1.734,0,0,0,1.733,1.733H4.426a3.225,3.225,0,0,0,.861,1.736H1.149a.5.5,0,0,0,0,1H7.62a3.238,3.238,0,0,0,3.194-2.734h12a3.225,3.225,0,0,0,.861,1.736H19.543a.5.5,0,0,0,0,1h6.471a3.238,3.238,0,0,0,3.194-2.734H34.67a2.336,2.336,0,1,0,0-4.671h-.379v-5.8c0-.016,0-.033,0-.049s0-.017,0-.025,0-.015,0-.022,0-.02-.007-.03l0-.016c0-.01-.007-.02-.01-.03l0-.013,0-.008v0l-3.552-8.9a1.724,1.724,0,0,0-1.61-1.09H20.676v-1.145a1.734,1.734,0,0,0-1.733-1.733H1.733A1.734,1.734,0,0,0,0,727.532Zm19.678,1.644v16.134H15.9a.734.734,0,0,1-.479-.178l-2.82-2.423a1.731,1.731,0,0,0-1.129-.418H1V727.532a.736.736,0,0,1,.735-.735H18.944a.735.735,0,0,1,.735.735v1.644Zm10.093.961.295.739H28.449a.5.5,0,0,0-.463.684l2.988,7.485a.5.5,0,0,0,.463.314h1.855v8.97H30.8a4.813,4.813,0,0,0-9.574,0h-.549V729.676h8.413A.733.733,0,0,1,29.771,730.138Zm-6.953,18.191h-.586a3.814,3.814,0,0,1,7.562,0h-.587a3.233,3.233,0,0,0-6.389,0Zm10.236-9.967H31.775l-2.59-6.487h1.279Zm1.614,9.967h-.379v-2.675h.379a1.337,1.337,0,1,1,0,2.675Zm-8.656,2.734a2.235,2.235,0,1,1,2.235-2.235A2.238,2.238,0,0,1,26.012,751.063ZM4.426,748.329H3.84a3.813,3.813,0,0,1,7.561,0h-.586a3.233,3.233,0,0,0-6.389,0Zm3.194,2.734a2.235,2.235,0,1,1,2.235-2.235A2.238,2.238,0,0,1,7.621,751.063ZM1,743.29H11.476a.734.734,0,0,1,.479.178l2.82,2.423a1.731,1.731,0,0,0,1.129.418h3.774v2.021H12.407a4.812,4.812,0,0,0-9.573,0h-1.1A.736.736,0,0,1,1,747.595V743.29Z" transform="translate(0 0)" fill="#0065f2"/>
    <path id="Pfad_18" data-name="Pfad 18" d="M2064.8,4139.4h2.223a.5.5,0,1,1,0,1H2064.8a.5.5,0,1,1,0-1Z" transform="translate(-2049.022 -3388.336)" fill="#0065f2"/>
  </g>
</svg>
