<svg xmlns="http://www.w3.org/2000/svg" width="16.021" height="36.48" viewBox="0 0 16.021 36.48">
  <g id="walk" transform="translate(-143.578 0)">
    <g id="Gruppe_3" data-name="Gruppe 3" transform="translate(143.578 0)">
      <path id="Pfad_34" data-name="Pfad 34" d="M144.343,29.182l1.137-.515,3.666-2.327a.566.566,0,0,0,.259-.545,6.116,6.116,0,0,1,.545-3.407c-.021-.124-.058-.368-.064-.486a11.031,11.031,0,0,1-.829-1.886,2.281,2.281,0,0,1-.138-.405.534.534,0,0,1,1.039-.251c.056.23.117.252.305.821a8.425,8.425,0,0,0,2.826,3.682c.426.322.512.629,1.146,1.567.381.592,1.25.46,1.353-.014a.455.455,0,0,0-.092-.387.9.9,0,0,1-.083-.985c.021-.038.005-.011-1.079-.635-.418-.236-.036-.013-2.8-4.091-.329-.485.314-.638.436-3.226l-1.8-.157a5.215,5.215,0,0,0-.207,1.1.534.534,0,1,1-1.065-.1,6.24,6.24,0,0,1,.259-1.346.945.945,0,0,1-.249-.724l.123-1.41a2.292,2.292,0,0,1,1.289-1.865,3.4,3.4,0,0,0,.413-2.568C149.1,7.247,148.419,5.556,148.7,4A4.58,4.58,0,0,1,150.966.99a5.767,5.767,0,0,1,2.006-.876A4.51,4.51,0,0,1,157.3,1.445a2.044,2.044,0,0,1,.1,3.2,7.751,7.751,0,0,1,.241,1.8l.414.979a.858.858,0,0,1-.016.7c-.283.594-.949.462-.977.61a2.346,2.346,0,0,1-1.835,2.15c-.631.09-.86.81-.939,1.213a2.669,2.669,0,0,1,.665.861,15.483,15.483,0,0,1,.866,8.225l1.107,2.456c.879,1.95.382,3.457.371,4.928a.534.534,0,0,1-1.066-.073c.146-2.164.146-2.062.151-2.287a1.879,1.879,0,0,1-3.045-.2l-.7-1.083c-.165-.256-.327-.24-1.13-1.009A5.205,5.205,0,0,0,152.8,25.77a1.69,1.69,0,0,1,.564,1.27V32.5h2.59l.1-1.508a.534.534,0,1,1,1.066.073l-.108,1.574a3.913,3.913,0,0,1,2.518,2.278A1.212,1.212,0,0,1,158.2,36.47c-5.38-.027-5.048-.023-5.087-.026a1.046,1.046,0,0,1-.923-1.218l.11-2.208V29.7l-3.654,2.384a1.337,1.337,0,0,1-.466.191c-.171,1.714-1.419,4.057-2.907,3.31a1.243,1.243,0,0,1-.68-.96c-.745-3.028-.992-4.023-1-4.058A1.306,1.306,0,0,1,144.343,29.182Zm6.185-16.452a1.212,1.212,0,0,0-.433.828l-.112,1.29,2.354.2.119-1.369A1.161,1.161,0,0,0,150.528,12.73ZM156.541,2.2a3.779,3.779,0,0,0-4.969-.331.523.523,0,0,1-.08.05,3.529,3.529,0,0,0-1.743,2.271,4.683,4.683,0,0,0,1.39,3.68l.311-.511a1.76,1.76,0,0,1,.285-1.5c.533-.583,1.225-.376,1.563-.417,1.325-.323,3.46-1.166,3.731-2.118C157.063,3.2,157.169,2.829,156.541,2.2Zm-1.464,7.626c.622-.089.853-.845.936-1.287a1.2,1.2,0,0,1,.964-.923l-.361-.854c-.1-.226.016-.5-.153-1.422a11.392,11.392,0,0,1-3.1,1.17l-.675,0a.219.219,0,0,0-.218.239c.03.587.135.777-.012,1.018l-.665,1.092a4.644,4.644,0,0,1-.155,2.5,4.312,4.312,0,0,1,1.688.2A2.189,2.189,0,0,1,155.077,9.827Zm-1.083,3.6a1.61,1.61,0,0,0-.631-.685c.323.782.083,1.323.02,2.625a.836.836,0,0,1-.338.6,11.269,11.269,0,0,1-.476,2.969c.237.351.713,1.06,1.181,1.771.043,0-.162,0,1.071,0A14.52,14.52,0,0,0,153.994,13.429Zm.922,8.352h-.475c.181.286.333.533.43.706l.487.275Zm-1.653,13.6c5.287.027,4.977.019,5.048.03.118.018.244-.06.214-.149a3.011,3.011,0,0,0-2.132-1.692h-3.052C153.266,35.21,153.246,35.24,153.263,35.378Zm-5.2-4.188,4.238-2.765c-.05-1.182.129-1.561-.2-1.854a6.327,6.327,0,0,1-1.609-2.333,5.172,5.172,0,0,0-.02,1.423,1.639,1.639,0,0,1-.747,1.58L146.48,29.3l1.194,1.812A.28.28,0,0,0,148.06,31.19Zm-3.412-.8c1.047,4.262,1,4.022,1,4.1a.183.183,0,0,0,.281.139,3.576,3.576,0,0,0,1.192-2.571c-.352-.251-.373-.451-1.583-2.239l-.756.342A.234.234,0,0,0,144.648,30.387Z" transform="translate(-143.578 0)" fill="#0065f2"/>
    </g>
  </g>
</svg>
